<mxfile host="app.diagrams.net" modified="2023-04-16T17:01:12.862Z" agent="5.0 (Macintosh; Intel Mac OS X 10_15_7) AppleWebKit/537.36 (KHTML, like Gecko) Chrome/112.0.0.0 Safari/537.36" etag="qEGe9SbNJfT-WcRUGimW" version="20.8.20" type="github">
  <diagram name="Page-1" id="0pvpNk4OS-BDRzyJDi8X">
    <mxGraphModel dx="954" dy="571" grid="1" gridSize="10" guides="1" tooltips="1" connect="1" arrows="1" fold="1" page="1" pageScale="1" pageWidth="827" pageHeight="1169" math="0" shadow="0">
      <root>
        <mxCell id="0" />
        <mxCell id="1" parent="0" />
        <mxCell id="vZl6kbsvZLyR6RfLAlne-1" value="" style="rounded=0;whiteSpace=wrap;html=1;fillColor=none;dashed=1;dashPattern=12 12;" vertex="1" parent="1">
          <mxGeometry x="100" y="70" width="740" height="440" as="geometry" />
        </mxCell>
        <mxCell id="vZl6kbsvZLyR6RfLAlne-18" value="" style="edgeStyle=orthogonalEdgeStyle;rounded=0;orthogonalLoop=1;jettySize=auto;html=1;" edge="1" parent="1" source="vZl6kbsvZLyR6RfLAlne-3" target="vZl6kbsvZLyR6RfLAlne-17">
          <mxGeometry relative="1" as="geometry">
            <Array as="points">
              <mxPoint x="390" y="239" />
              <mxPoint x="390" y="239" />
            </Array>
          </mxGeometry>
        </mxCell>
        <mxCell id="vZl6kbsvZLyR6RfLAlne-3" value="" style="sketch=0;points=[[0,0,0],[0.25,0,0],[0.5,0,0],[0.75,0,0],[1,0,0],[0,1,0],[0.25,1,0],[0.5,1,0],[0.75,1,0],[1,1,0],[0,0.25,0],[0,0.5,0],[0,0.75,0],[1,0.25,0],[1,0.5,0],[1,0.75,0]];outlineConnect=0;fontColor=#232F3E;gradientColor=#60A337;gradientDirection=north;fillColor=#277116;strokeColor=#ffffff;dashed=0;verticalLabelPosition=bottom;verticalAlign=top;align=center;html=1;fontSize=12;fontStyle=0;aspect=fixed;shape=mxgraph.aws4.resourceIcon;resIcon=mxgraph.aws4.s3;dashPattern=12 12;" vertex="1" parent="1">
          <mxGeometry x="300" y="215.75" width="47" height="47" as="geometry" />
        </mxCell>
        <mxCell id="vZl6kbsvZLyR6RfLAlne-32" value="" style="rounded=0;whiteSpace=wrap;html=1;dashed=1;dashPattern=12 12;fillColor=none;" vertex="1" parent="1">
          <mxGeometry x="250" y="100" width="530" height="310" as="geometry" />
        </mxCell>
        <mxCell id="vZl6kbsvZLyR6RfLAlne-30" value="" style="edgeStyle=orthogonalEdgeStyle;rounded=0;orthogonalLoop=1;jettySize=auto;html=1;" edge="1" parent="1" source="vZl6kbsvZLyR6RfLAlne-4" target="vZl6kbsvZLyR6RfLAlne-29">
          <mxGeometry relative="1" as="geometry" />
        </mxCell>
        <mxCell id="vZl6kbsvZLyR6RfLAlne-4" value="" style="sketch=0;points=[[0,0,0],[0.25,0,0],[0.5,0,0],[0.75,0,0],[1,0,0],[0,1,0],[0.25,1,0],[0.5,1,0],[0.75,1,0],[1,1,0],[0,0.25,0],[0,0.5,0],[0,0.75,0],[1,0.25,0],[1,0.5,0],[1,0.75,0]];outlineConnect=0;fontColor=#232F3E;gradientColor=#60A337;gradientDirection=north;fillColor=#277116;strokeColor=#ffffff;dashed=0;verticalLabelPosition=bottom;verticalAlign=top;align=center;html=1;fontSize=12;fontStyle=0;aspect=fixed;shape=mxgraph.aws4.resourceIcon;resIcon=mxgraph.aws4.s3;dashPattern=12 12;" vertex="1" parent="1">
          <mxGeometry x="550" y="220.5" width="48.5" height="48.5" as="geometry" />
        </mxCell>
        <mxCell id="vZl6kbsvZLyR6RfLAlne-5" value="" style="sketch=0;points=[[0,0,0],[0.25,0,0],[0.5,0,0],[0.75,0,0],[1,0,0],[0,1,0],[0.25,1,0],[0.5,1,0],[0.75,1,0],[1,1,0],[0,0.25,0],[0,0.5,0],[0,0.75,0],[1,0.25,0],[1,0.5,0],[1,0.75,0]];outlineConnect=0;fontColor=#232F3E;gradientColor=#60A337;gradientDirection=north;fillColor=#277116;strokeColor=#ffffff;dashed=0;verticalLabelPosition=bottom;verticalAlign=top;align=center;html=1;fontSize=12;fontStyle=0;aspect=fixed;shape=mxgraph.aws4.resourceIcon;resIcon=mxgraph.aws4.s3;dashPattern=12 12;" vertex="1" parent="1">
          <mxGeometry x="680" y="220.5" width="48.5" height="48.5" as="geometry" />
        </mxCell>
        <mxCell id="vZl6kbsvZLyR6RfLAlne-40" value="" style="edgeStyle=orthogonalEdgeStyle;rounded=0;orthogonalLoop=1;jettySize=auto;html=1;" edge="1" parent="1" source="vZl6kbsvZLyR6RfLAlne-7" target="vZl6kbsvZLyR6RfLAlne-5">
          <mxGeometry relative="1" as="geometry" />
        </mxCell>
        <mxCell id="vZl6kbsvZLyR6RfLAlne-7" value="DEEQUE" style="rounded=0;whiteSpace=wrap;html=1;dashed=1;dashPattern=12 12;fillColor=#f8cecc;strokeColor=#b85450;" vertex="1" parent="1">
          <mxGeometry x="669.25" y="354" width="70" height="30" as="geometry" />
        </mxCell>
        <mxCell id="vZl6kbsvZLyR6RfLAlne-9" value="" style="sketch=0;outlineConnect=0;fontColor=#232F3E;gradientColor=none;fillColor=#B0084D;strokeColor=none;dashed=0;verticalLabelPosition=bottom;verticalAlign=top;align=center;html=1;fontSize=12;fontStyle=0;aspect=fixed;pointerEvents=1;shape=mxgraph.aws4.event_time_based;dashPattern=12 12;" vertex="1" parent="1">
          <mxGeometry x="187.5" y="323" width="30" height="30" as="geometry" />
        </mxCell>
        <mxCell id="vZl6kbsvZLyR6RfLAlne-15" style="edgeStyle=orthogonalEdgeStyle;rounded=0;orthogonalLoop=1;jettySize=auto;html=1;" edge="1" parent="1" source="vZl6kbsvZLyR6RfLAlne-11" target="vZl6kbsvZLyR6RfLAlne-12">
          <mxGeometry relative="1" as="geometry">
            <Array as="points">
              <mxPoint x="140" y="238" />
            </Array>
          </mxGeometry>
        </mxCell>
        <mxCell id="vZl6kbsvZLyR6RfLAlne-16" value="" style="edgeStyle=orthogonalEdgeStyle;rounded=0;orthogonalLoop=1;jettySize=auto;html=1;" edge="1" parent="1" source="vZl6kbsvZLyR6RfLAlne-11" target="vZl6kbsvZLyR6RfLAlne-3">
          <mxGeometry relative="1" as="geometry">
            <Array as="points">
              <mxPoint x="280" y="238" />
              <mxPoint x="280" y="239" />
            </Array>
          </mxGeometry>
        </mxCell>
        <mxCell id="vZl6kbsvZLyR6RfLAlne-34" value="" style="edgeStyle=orthogonalEdgeStyle;rounded=0;orthogonalLoop=1;jettySize=auto;html=1;" edge="1" parent="1" source="vZl6kbsvZLyR6RfLAlne-11" target="vZl6kbsvZLyR6RfLAlne-33">
          <mxGeometry relative="1" as="geometry" />
        </mxCell>
        <mxCell id="vZl6kbsvZLyR6RfLAlne-11" value="" style="sketch=0;points=[[0,0,0],[0.25,0,0],[0.5,0,0],[0.75,0,0],[1,0,0],[0,1,0],[0.25,1,0],[0.5,1,0],[0.75,1,0],[1,1,0],[0,0.25,0],[0,0.5,0],[0,0.75,0],[1,0.25,0],[1,0.5,0],[1,0.75,0]];outlineConnect=0;fontColor=#232F3E;gradientColor=#F78E04;gradientDirection=north;fillColor=#D05C17;strokeColor=#ffffff;dashed=0;verticalLabelPosition=bottom;verticalAlign=top;align=center;html=1;fontSize=12;fontStyle=0;aspect=fixed;shape=mxgraph.aws4.resourceIcon;resIcon=mxgraph.aws4.lambda;dashPattern=12 12;" vertex="1" parent="1">
          <mxGeometry x="180" y="215" width="45" height="45" as="geometry" />
        </mxCell>
        <mxCell id="vZl6kbsvZLyR6RfLAlne-12" value="" style="sketch=0;points=[[0,0,0],[0.25,0,0],[0.5,0,0],[0.75,0,0],[1,0,0],[0,1,0],[0.25,1,0],[0.5,1,0],[0.75,1,0],[1,1,0],[0,0.25,0],[0,0.5,0],[0,0.75,0],[1,0.25,0],[1,0.5,0],[1,0.75,0]];outlineConnect=0;fontColor=#232F3E;gradientColor=#F54749;gradientDirection=north;fillColor=#C7131F;strokeColor=#ffffff;dashed=0;verticalLabelPosition=bottom;verticalAlign=top;align=center;html=1;fontSize=12;fontStyle=0;aspect=fixed;shape=mxgraph.aws4.resourceIcon;resIcon=mxgraph.aws4.secrets_manager;dashPattern=12 12;" vertex="1" parent="1">
          <mxGeometry x="120" y="320" width="33" height="33" as="geometry" />
        </mxCell>
        <mxCell id="vZl6kbsvZLyR6RfLAlne-14" value="" style="endArrow=classic;html=1;rounded=0;entryX=0.5;entryY=1;entryDx=0;entryDy=0;entryPerimeter=0;" edge="1" parent="1" source="vZl6kbsvZLyR6RfLAlne-9" target="vZl6kbsvZLyR6RfLAlne-11">
          <mxGeometry width="50" height="50" relative="1" as="geometry">
            <mxPoint x="390" y="260" as="sourcePoint" />
            <mxPoint x="440" y="210" as="targetPoint" />
          </mxGeometry>
        </mxCell>
        <mxCell id="vZl6kbsvZLyR6RfLAlne-21" style="edgeStyle=orthogonalEdgeStyle;rounded=0;orthogonalLoop=1;jettySize=auto;html=1;" edge="1" parent="1" source="vZl6kbsvZLyR6RfLAlne-17" target="vZl6kbsvZLyR6RfLAlne-4">
          <mxGeometry relative="1" as="geometry" />
        </mxCell>
        <mxCell id="vZl6kbsvZLyR6RfLAlne-17" value="" style="outlineConnect=0;dashed=0;verticalLabelPosition=bottom;verticalAlign=top;align=center;html=1;shape=mxgraph.aws3.emr;fillColor=#F58534;gradientColor=none;dashPattern=12 12;" vertex="1" parent="1">
          <mxGeometry x="410" y="215.75" width="50" height="58" as="geometry" />
        </mxCell>
        <mxCell id="vZl6kbsvZLyR6RfLAlne-20" value="Spark on EMR S" style="text;html=1;strokeColor=none;fillColor=none;align=center;verticalAlign=middle;whiteSpace=wrap;rounded=0;" vertex="1" parent="1">
          <mxGeometry x="405" y="290" width="60" height="30" as="geometry" />
        </mxCell>
        <mxCell id="vZl6kbsvZLyR6RfLAlne-23" value="Processed&lt;br&gt;Parquet" style="text;html=1;strokeColor=none;fillColor=none;align=center;verticalAlign=middle;whiteSpace=wrap;rounded=0;" vertex="1" parent="1">
          <mxGeometry x="490" y="190.5" width="60" height="30" as="geometry" />
        </mxCell>
        <mxCell id="vZl6kbsvZLyR6RfLAlne-24" value="Mart" style="text;html=1;strokeColor=none;fillColor=none;align=center;verticalAlign=middle;whiteSpace=wrap;rounded=0;" vertex="1" parent="1">
          <mxGeometry x="640" y="190.5" width="60" height="30" as="geometry" />
        </mxCell>
        <mxCell id="vZl6kbsvZLyR6RfLAlne-27" value="" style="endArrow=classic;startArrow=classic;html=1;rounded=0;entryX=0.5;entryY=0;entryDx=0;entryDy=0;entryPerimeter=0;" edge="1" parent="1" target="vZl6kbsvZLyR6RfLAlne-5">
          <mxGeometry width="50" height="50" relative="1" as="geometry">
            <mxPoint x="570" y="210" as="sourcePoint" />
            <mxPoint x="440" y="210" as="targetPoint" />
            <Array as="points">
              <mxPoint x="570" y="170" />
              <mxPoint x="640" y="170" />
              <mxPoint x="704" y="170" />
            </Array>
          </mxGeometry>
        </mxCell>
        <mxCell id="vZl6kbsvZLyR6RfLAlne-28" value="" style="sketch=0;outlineConnect=0;fontColor=#232F3E;gradientColor=none;fillColor=#4D27AA;strokeColor=none;dashed=0;verticalLabelPosition=bottom;verticalAlign=top;align=center;html=1;fontSize=12;fontStyle=0;aspect=fixed;pointerEvents=1;shape=mxgraph.aws4.glue_data_catalog;dashPattern=12 12;" vertex="1" parent="1">
          <mxGeometry x="610" y="110" width="46.15" height="50" as="geometry" />
        </mxCell>
        <mxCell id="vZl6kbsvZLyR6RfLAlne-39" value="" style="edgeStyle=orthogonalEdgeStyle;rounded=0;orthogonalLoop=1;jettySize=auto;html=1;" edge="1" parent="1" source="vZl6kbsvZLyR6RfLAlne-29" target="vZl6kbsvZLyR6RfLAlne-7">
          <mxGeometry relative="1" as="geometry" />
        </mxCell>
        <mxCell id="vZl6kbsvZLyR6RfLAlne-29" value="" style="outlineConnect=0;dashed=0;verticalLabelPosition=bottom;verticalAlign=top;align=center;html=1;shape=mxgraph.aws3.emr;fillColor=#F58534;gradientColor=none;dashPattern=12 12;" vertex="1" parent="1">
          <mxGeometry x="548.5" y="340" width="50" height="58" as="geometry" />
        </mxCell>
        <mxCell id="vZl6kbsvZLyR6RfLAlne-35" value="" style="edgeStyle=orthogonalEdgeStyle;rounded=0;orthogonalLoop=1;jettySize=auto;html=1;" edge="1" parent="1" source="vZl6kbsvZLyR6RfLAlne-33" target="vZl6kbsvZLyR6RfLAlne-32">
          <mxGeometry relative="1" as="geometry">
            <Array as="points">
              <mxPoint x="238" y="157" />
              <mxPoint x="238" y="150" />
              <mxPoint x="230" y="150" />
              <mxPoint x="230" y="160" />
            </Array>
          </mxGeometry>
        </mxCell>
        <mxCell id="vZl6kbsvZLyR6RfLAlne-33" value="" style="sketch=0;points=[[0,0,0],[0.25,0,0],[0.5,0,0],[0.75,0,0],[1,0,0],[0,1,0],[0.25,1,0],[0.5,1,0],[0.75,1,0],[1,1,0],[0,0.25,0],[0,0.5,0],[0,0.75,0],[1,0.25,0],[1,0.5,0],[1,0.75,0]];outlineConnect=0;fontColor=#232F3E;gradientColor=#FF4F8B;gradientDirection=north;fillColor=#BC1356;strokeColor=#ffffff;dashed=0;verticalLabelPosition=bottom;verticalAlign=top;align=center;html=1;fontSize=12;fontStyle=0;aspect=fixed;shape=mxgraph.aws4.resourceIcon;resIcon=mxgraph.aws4.managed_workflows_for_apache_airflow;dashPattern=12 12;" vertex="1" parent="1">
          <mxGeometry x="171.5" y="134" width="46" height="46" as="geometry" />
        </mxCell>
        <mxCell id="vZl6kbsvZLyR6RfLAlne-36" value="" style="sketch=0;points=[[0,0,0],[0.25,0,0],[0.5,0,0],[0.75,0,0],[1,0,0],[0,1,0],[0.25,1,0],[0.5,1,0],[0.75,1,0],[1,1,0],[0,0.25,0],[0,0.5,0],[0,0.75,0],[1,0.25,0],[1,0.5,0],[1,0.75,0]];points=[[0,0,0],[0.25,0,0],[0.5,0,0],[0.75,0,0],[1,0,0],[0,1,0],[0.25,1,0],[0.5,1,0],[0.75,1,0],[1,1,0],[0,0.25,0],[0,0.5,0],[0,0.75,0],[1,0.25,0],[1,0.5,0],[1,0.75,0]];outlineConnect=0;fontColor=#232F3E;gradientColor=#F34482;gradientDirection=north;fillColor=#BC1356;strokeColor=#ffffff;dashed=0;verticalLabelPosition=bottom;verticalAlign=top;align=center;html=1;fontSize=12;fontStyle=0;aspect=fixed;shape=mxgraph.aws4.resourceIcon;resIcon=mxgraph.aws4.cloudwatch_2;dashPattern=12 12;" vertex="1" parent="1">
          <mxGeometry x="394" y="420" width="40" height="40" as="geometry" />
        </mxCell>
        <mxCell id="vZl6kbsvZLyR6RfLAlne-41" value="Text" style="text;html=1;strokeColor=none;fillColor=none;align=center;verticalAlign=middle;whiteSpace=wrap;rounded=0;" vertex="1" parent="1">
          <mxGeometry x="380" y="240" width="60" height="30" as="geometry" />
        </mxCell>
        <mxCell id="vZl6kbsvZLyR6RfLAlne-44" value="" style="sketch=0;points=[[0,0,0],[0.25,0,0],[0.5,0,0],[0.75,0,0],[1,0,0],[0,1,0],[0.25,1,0],[0.5,1,0],[0.75,1,0],[1,1,0],[0,0.25,0],[0,0.5,0],[0,0.75,0],[1,0.25,0],[1,0.5,0],[1,0.75,0]];outlineConnect=0;fontColor=#232F3E;gradientColor=#FF4F8B;gradientDirection=north;fillColor=#BC1356;strokeColor=#ffffff;dashed=0;verticalLabelPosition=bottom;verticalAlign=top;align=center;html=1;fontSize=12;fontStyle=0;aspect=fixed;shape=mxgraph.aws4.resourceIcon;resIcon=mxgraph.aws4.sns;dashPattern=12 12;" vertex="1" parent="1">
          <mxGeometry x="490" y="420" width="40" height="40" as="geometry" />
        </mxCell>
        <mxCell id="vZl6kbsvZLyR6RfLAlne-45" value="Logging" style="text;html=1;strokeColor=none;fillColor=none;align=center;verticalAlign=middle;whiteSpace=wrap;rounded=0;" vertex="1" parent="1">
          <mxGeometry x="380" y="470" width="60" height="30" as="geometry" />
        </mxCell>
        <mxCell id="vZl6kbsvZLyR6RfLAlne-46" value="SNS (Notification)&lt;br&gt;" style="text;html=1;strokeColor=none;fillColor=none;align=center;verticalAlign=middle;whiteSpace=wrap;rounded=0;" vertex="1" parent="1">
          <mxGeometry x="480" y="470" width="60" height="30" as="geometry" />
        </mxCell>
      </root>
    </mxGraphModel>
  </diagram>
</mxfile>
